PathFileType	4	(X/Y/Z)	Patient4_TMGait_0pt2_03_left_21.trc.trc
DataRate	CameraRate	NumFrames	NumMarkers	Units	OrigDataRate	OrigDataStartFrame	OrigNumFrames
49.122807017544	49.122807017544	5	33	mm	49.122807017544	71	       141
Frame#	Time	Sacral			L.Shoulder			Chest			R.Shoulder			Neck			R.ASIS			L.ASIS			R.Thigh.Superior			R.Thigh.Lateral			R.Thigh.Inferior			R.Patella			L.Thigh.Superior			L.Thigh.Lateral			L.Thigh.Inferior			L.Patella			L.Shank.Superior			L.Shank.Lateral			L.Shank.Inferior			R.Shank.Superior			R.Shank.Lateral			R.Shank.Inferior			R.Heel			R.Midfoot.Superior			R.Midfoot.Lateral			R.Toe			L.Heel			L.Midfoot.Lateral			L.Midfoot.Superior			L.Toe			L.Elbow			L.Wrist			R.Elbow			R.Wrist			
		X1	Y1	Z1	X2	Y2	Z2	X3	Y3	Z3	X4	Y4	Z4	X5	Y5	Z5	X6	Y6	Z6	X7	Y7	Z7	X8	Y8	Z8	X9	Y9	Z9	X10	Y10	Z10	X11	Y11	Z11	X12	Y12	Z12	X13	Y13	Z13	X14	Y14	Z14	X15	Y15	Z15	X16	Y16	Z16	X17	Y17	Z17	X18	Y18	Z18	X19	Y19	Z19	X20	Y20	Z20	X21	Y21	Z21	X22	Y22	Z22	X23	Y23	Z23	X24	Y24	Z24	X25	Y25	Z25	X26	Y26	Z26	X27	Y27	Z27	X28	Y28	Z28	X29	Y29	Z29	X30	Y30	Z30	X31	Y31	Z31	X32	Y32	Z32	X33	Y33	Z33	

71	45.385000000000	864.262250273625	1015.869949723598	417.496564220241	1110.920732727423	1442.166982024653	294.791301969378	1154.901965576725	1366.344357542140	475.032164783030	1027.823238405024	1443.119923308091	617.471117107774	1034.716495287084	1497.013616041272	442.499119556512	1061.420895355841	951.193855795197	586.623916975445	1107.215849457754	961.538784599494	315.993535081521	1133.108619223858	766.194197451526	566.168941599688	1071.377094512953	652.269057544618	636.906165779595	1157.923655593186	602.549421298495	563.664661720731	1179.063779926634	512.132722605601	585.137158990944	1126.569560573253	738.333250996682	350.596701257565	1034.338765017207	617.616934417956	269.262562022870	1110.149165218099	545.733639386645	349.117950646407	1104.048231646859	475.513818383171	356.148870297622	1068.190812803550	405.137062823530	343.580525773322	972.620116100020	301.750734865283	282.050843379402	998.732760711617	185.836643186272	355.990344030514	1141.811463781772	425.195529732102	601.031264678065	1063.769613558844	336.054699973953	676.198116295503	1103.042017695309	231.358998254232	629.423839983427	962.876507694443	65.989345040302	627.023884168897	1138.864412677102	117.887410484305	648.724232470070	1053.313734417344	56.577470631064	692.817445028893	1257.811891481097	66.242746057532	665.402129945989	853.137913877333	39.170329452876	387.015811647497	929.674938293125	35.902011528539	308.707522859653	1013.147508629243	95.660665211759	339.758505611120	1141.894120369929	41.365207752447	313.460048808094	1274.486516297096	1185.004575091689	119.656118960515	1526.252737943016	1228.566618793856	158.456019150859	829.263623020334	1152.700012871451	677.263988188245	783.486949574391	893.536138096886	667.428905904442	
72	45.405357142857	864.413465640282	1015.637735162313	420.376953037889	1113.066830707712	1440.757749026144	298.622910536263	1155.500632317185	1365.473571209928	479.337438827167	1027.933799417849	1443.460632192799	620.652371616852	1035.797233927599	1496.327698738588	445.517848650934	1060.016236638302	949.943496660025	591.069145255669	1107.746635274788	960.577802795417	320.810442336817	1129.214935112463	762.915338314522	571.155994032574	1064.787360365341	649.490949576784	640.194766839695	1151.399527723964	599.665372140806	567.188186421325	1171.737876759587	511.468847989539	586.772225360236	1125.573603647108	737.269301289913	354.554898331850	1033.359664140284	617.403991288089	271.903688566841	1108.280866863520	544.739461433256	351.840812315778	1101.630405680353	474.532107019429	358.363263294978	1065.485630145166	404.495321268973	345.296814862290	969.383179031606	301.863582218871	283.251088532450	995.013859280531	185.471978795522	356.553371774015	1138.924934382980	423.629233753682	602.590729218867	1065.629370991705	329.836842028447	677.781116893379	1109.809969509749	227.134499864233	629.847218916402	976.938517847507	55.572119136125	627.711155919161	1151.776355997023	114.271823867477	647.729246241389	1068.774982597827	49.006474862816	692.300697085505	1273.394592835253	66.954973368197	662.437807560422	849.017753143740	39.060556162345	387.019708462104	925.540481613130	35.834125115236	308.697447000014	1008.998398183213	95.612960705254	339.865115953530	1137.765215658736	41.368765041059	313.479182800970	1279.176933500129	1185.900558100288	124.349762972216	1529.092832293484	1238.113062616989	162.964519521956	829.152167322629	1153.341543873665	678.849960628097	785.653006166888	893.532607200665	667.574842953011	
73	45.425714285714	864.763336810422	1015.015324306354	423.926649030071	1114.752005676380	1439.187236290157	302.893563315771	1156.156210421489	1364.402726757768	483.959483717906	1028.340887246604	1443.381865604715	624.487880152901	1036.764908780857	1495.407617676814	449.147410204841	1059.205489708393	948.320194424760	595.649096506432	1108.338477547947	959.526895125979	325.714223081283	1126.226936523968	759.520026089243	575.981525813029	1059.297801343592	646.434740593524	643.176718402913	1146.146354409955	596.737285627031	570.394447518019	1165.284581162581	510.326182432121	588.092939904124	1125.015779696442	736.110163862676	358.487355698940	1032.773315322980	617.031766235542	274.730245721477	1106.945688243194	543.617135383863	354.632968318467	1099.793196015189	473.388434308593	360.670920965917	1063.209676869248	403.687954520170	347.145629313116	966.406737917317	301.974035994428	284.552194739547	991.428368488424	185.027937834576	357.145629502676	1136.204360239431	421.762187348698	603.819090381028	1066.703614982821	324.385426434746	678.765987778062	1114.647576889415	223.464981206446	629.731430347584	987.518882430758	48.069198901289	627.440700978114	1161.317548521237	111.014857004440	646.199461050006	1080.168181434486	43.308263201558	691.133788670055	1284.564478933512	66.481371385182	659.330363805387	844.898868630858	38.951965630594	387.020968457142	921.410397531994	35.762182055908	308.696214487483	1004.860515464874	95.562441664163	339.969722806784	1133.638269359494	41.360892152371	313.495050730084	1282.896270161334	1186.027791383450	129.460799483842	1531.009010845565	1245.646621576967	167.622666009650	830.256483833073	1152.811196267128	681.634553980061	789.442087090444	892.344882742654	669.210441161168	
74	45.446071428571	865.349288702486	1014.126376325775	428.104730928101	1115.975655448104	1437.611557991533	307.583934759083	1156.861047239117	1363.279537355736	488.887483414314	1028.994145738779	1443.002764184336	628.957328533828	1037.593738525608	1494.374533747208	453.372690757115	1059.039707146212	946.493541988772	600.349006112724	1109.052211251270	958.505984328957	330.689359680324	1124.297338762700	756.224386116229	580.559248659739	1055.144152977231	643.330373174355	645.871943199113	1142.321391830350	593.946548661205	573.267902077438	1159.954719336162	508.842966164153	589.184058921925	1124.848015989060	734.896321727005	362.384669127404	1032.435117466949	616.593064053808	277.720679681840	1105.961953653788	542.420300435215	357.465416160707	1098.325211750499	472.155115401825	363.051159526410	1061.198697769106	402.808411863168	349.098515702036	963.568808577327	302.131934870883	285.939700371827	987.921682774555	184.560776095797	357.757388751634	1133.805329059460	419.709957406553	604.799697446805	1067.085291613760	319.786101322737	679.322959854594	1117.577547825873	220.327495734015	629.228988461645	994.447154488003	43.202135317639	626.460990948585	1167.451354443481	108.110139747577	644.355364017275	1087.430851452887	39.351751362892	689.602831799834	1291.485642659752	64.942347869498	656.389974415384	840.783336885234	38.861321549639	387.019015064720	917.287869209543	35.699111733466	308.707560692159	1000.741810097834	95.518240411186	340.066227283413	1129.514708443774	41.339615228931	313.506526227662	1285.577920072487	1185.470400316450	134.922820864128	1532.043744085737	1251.204933879597	172.395025176605	832.374783070249	1151.357252438403	685.632291767257	794.501855805385	890.267624285534	672.458184018598	
75	45.466428571429	866.191725294426	1013.109536922748	432.852825323646	1116.769658803746	1436.177435329075	312.652109270688	1157.613728106627	1362.244105833576	494.088917380933	1029.851457380562	1442.453521121067	634.004441551733	1038.276380001251	1493.351328583052	458.144804803032	1059.533886507692	944.643400907664	605.155611382629	1109.923498503135	957.623963474741	335.721841896180	1123.480794872762	753.213674472823	584.828504271935	1052.452871213493	640.402606914998	648.357964323167	1139.939241285670	591.439089235060	575.832312952337	1155.887650687848	507.169320327367	590.159658540260	1124.986876732076	733.675203641400	366.234293962311	1032.170005302905	616.189250738945	280.848554910117	1105.124096589105	541.215125721927	360.301040008779	1096.997093445116	470.917135932197	365.471029603074	1059.277689852782	401.960048345991	351.116459297461	960.739850952458	302.391062739487	287.396767548867	984.439717454821	184.135282768829	358.378238052568	1131.840654985673	417.598151653795	605.641391652282	1066.938786245455	316.062048954486	679.670827401991	1118.777145672107	217.684175025866	628.524380899929	997.894666178977	40.528349531221	625.085096759637	1170.409133137039	105.567090655235	642.436049079354	1090.864999178046	36.898086260633	688.002150655903	1294.620061253336	62.602210407149	653.858625743454	836.675582243098	38.814378374580	387.015404612178	913.177726337119	35.664475631010	308.736124785476	996.652887565937	95.492032380444	340.150038079813	1125.396780281017	41.301927802371	313.512912203129	1287.192579625727	1184.306223966558	140.676087074528	1532.263559066443	1254.839498870186	177.248612094259	835.302861097245	1149.264695824603	690.806123757060	800.510203362831	887.617876170264	677.381068354107	
